<?xml version="1.0" encoding="iso-8859-1"?>
<!-- Generator: Adobe Illustrator 19.0.0, SVG Export Plug-In . SVG Version: 6.00 Build 0)  -->
<svg version="1.1" id="Layer_1" xmlns="http://www.w3.org/2000/svg" xmlns:xlink="http://www.w3.org/1999/xlink" x="0px" y="0px"
	 viewBox="0 0 442.979 442.979" style="enable-background:new 0 0 442.979 442.979;" xml:space="preserve">
<g>
	<g>
		<g>
			<rect x="15.002" y="427.619" width="238.916" height="15.36"/>
			
				<rect x="138.38" y="149.538" transform="matrix(-0.7071 -0.7071 0.7071 -0.7071 103.7642 454.7293)" width="15.36" height="112.673"/>
			<path d="M434.009,104.905c0-20.282-7.902-39.352-22.241-53.695l-28.959-28.966C368.462,7.898,349.389,0,329.097,0
				c-20.279,0-39.352,7.902-53.699,22.245l-14.747,14.753L42.762,254.88l5.433,5.433c18.962,18.965,18.961,49.823-0.006,68.79
				l-5.434,5.431l7.848,7.847L8.97,384.014L29.157,404.2h41.69l20.789-20.792l7.839,7.838l5.437-5.427
				c9.185-9.185,21.402-14.244,34.4-14.244c12.991,0,25.204,5.062,34.386,14.244l0,0l5.427,5.427l210.319-210.313l0,0l1.811-1.811
				l9.051-9.05l-0.001-0.001l11.463-11.465C426.11,144.265,434.009,125.191,434.009,104.905z M64.481,388.84H35.516l-4.826-4.826
				l30.774-30.774l19.309,19.307L64.481,388.84z M139.308,356.212c-14.514,0-28.286,4.796-39.509,13.633L64.157,334.21
				c10.158-12.933,14.633-28.908,13.411-44.52l66.714,66.714C142.636,356.277,140.974,356.212,139.308,356.212z M330.527,121.593
				l-37.629,37.629l-18.101-18.108l37.406-37.414l0.001,0.001l24.139-24.132l18.101,18.101L330.527,121.593z M179.127,369.526
				L64.486,254.879L263.939,55.436l0.656,0.656l36.749,36.749l-48.266,48.273l39.82,39.827l48.271-48.275l19.148,19.144
				l18.265,18.263L179.127,369.526z M389.445,159.214l-37.412-37.408l24.13-24.137l-39.82-39.82l-24.139,24.132l-37.407-37.407
				l11.459-11.469c11.448-11.438,26.662-17.743,42.841-17.743c16.193,0,31.406,6.298,42.848,17.743l28.966,28.966
				c11.438,11.445,17.739,26.658,17.739,42.837c0,16.183-6.298,31.399-17.739,42.844L389.445,159.214z"/>
		</g>
	</g>
</g>
<g>
</g>
<g>
</g>
<g>
</g>
<g>
</g>
<g>
</g>
<g>
</g>
<g>
</g>
<g>
</g>
<g>
</g>
<g>
</g>
<g>
</g>
<g>
</g>
<g>
</g>
<g>
</g>
<g>
</g>
</svg>
